<mxfile host="app.diagrams.net" modified="2022-11-17T06:13:01.292Z" agent="5.0 (Macintosh; Intel Mac OS X 10_15_7) AppleWebKit/537.36 (KHTML, like Gecko) Chrome/107.0.0.0 Safari/537.36" etag="vIzSv7_BLuHJHNc5Sv2N" version="20.5.3" type="github">
  <diagram name="Page-1" id="9f46799a-70d6-7492-0946-bef42562c5a5">
    <mxGraphModel dx="3393" dy="2273" grid="1" gridSize="10" guides="1" tooltips="1" connect="1" arrows="1" fold="1" page="1" pageScale="1" pageWidth="1100" pageHeight="850" background="none" math="0" shadow="0">
      <root>
        <mxCell id="0" />
        <mxCell id="1" parent="0" />
        <mxCell id="aGxPgQliDTNxI-pSx7u1-4" value="" style="rounded=0;whiteSpace=wrap;html=1;fillColor=#dae8fc;strokeColor=#6c8ebf;" vertex="1" parent="1">
          <mxGeometry x="130" y="160" width="150" height="310" as="geometry" />
        </mxCell>
        <mxCell id="aGxPgQliDTNxI-pSx7u1-6" value="Library.so" style="text;html=1;strokeColor=default;fillColor=none;align=center;verticalAlign=middle;whiteSpace=wrap;rounded=0;labelBorderColor=none;" vertex="1" parent="1">
          <mxGeometry x="130" y="160" width="150" height="30" as="geometry" />
        </mxCell>
        <mxCell id="aGxPgQliDTNxI-pSx7u1-18" style="edgeStyle=orthogonalEdgeStyle;rounded=0;orthogonalLoop=1;jettySize=auto;html=1;exitX=1;exitY=0.5;exitDx=0;exitDy=0;entryX=1;entryY=0.75;entryDx=0;entryDy=0;fillColor=#d5e8d4;strokeColor=#82b366;" edge="1" parent="1" source="aGxPgQliDTNxI-pSx7u1-8" target="aGxPgQliDTNxI-pSx7u1-15">
          <mxGeometry relative="1" as="geometry">
            <Array as="points">
              <mxPoint x="300" y="325" />
              <mxPoint x="300" y="243" />
            </Array>
          </mxGeometry>
        </mxCell>
        <mxCell id="aGxPgQliDTNxI-pSx7u1-8" value="envp pointer" style="text;html=1;strokeColor=default;fillColor=none;align=center;verticalAlign=middle;whiteSpace=wrap;rounded=0;labelBorderColor=none;" vertex="1" parent="1">
          <mxGeometry x="130" y="310" width="150" height="30" as="geometry" />
        </mxCell>
        <mxCell id="aGxPgQliDTNxI-pSx7u1-16" style="edgeStyle=orthogonalEdgeStyle;rounded=0;orthogonalLoop=1;jettySize=auto;html=1;exitX=1;exitY=0.25;exitDx=0;exitDy=0;entryX=1;entryY=0.5;entryDx=0;entryDy=0;fillColor=#dae8fc;strokeColor=#6c8ebf;" edge="1" parent="1" source="aGxPgQliDTNxI-pSx7u1-9" target="aGxPgQliDTNxI-pSx7u1-12">
          <mxGeometry relative="1" as="geometry">
            <Array as="points">
              <mxPoint x="280" y="350" />
              <mxPoint x="290" y="350" />
              <mxPoint x="290" y="295" />
            </Array>
          </mxGeometry>
        </mxCell>
        <mxCell id="aGxPgQliDTNxI-pSx7u1-9" value="argv pointer" style="text;html=1;strokeColor=default;fillColor=none;align=center;verticalAlign=middle;whiteSpace=wrap;rounded=0;labelBorderColor=none;" vertex="1" parent="1">
          <mxGeometry x="130" y="340" width="150" height="30" as="geometry" />
        </mxCell>
        <mxCell id="aGxPgQliDTNxI-pSx7u1-10" value="argc" style="text;html=1;strokeColor=default;fillColor=none;align=center;verticalAlign=middle;whiteSpace=wrap;rounded=0;labelBorderColor=none;" vertex="1" parent="1">
          <mxGeometry x="130" y="370" width="150" height="30" as="geometry" />
        </mxCell>
        <mxCell id="aGxPgQliDTNxI-pSx7u1-11" value="&#39;\0&#39;" style="text;html=1;strokeColor=default;fillColor=none;align=center;verticalAlign=middle;whiteSpace=wrap;rounded=0;labelBorderColor=none;" vertex="1" parent="1">
          <mxGeometry x="130" y="190" width="150" height="30" as="geometry" />
        </mxCell>
        <mxCell id="aGxPgQliDTNxI-pSx7u1-12" value="argv" style="text;html=1;strokeColor=default;fillColor=none;align=center;verticalAlign=middle;whiteSpace=wrap;rounded=0;labelBorderColor=none;" vertex="1" parent="1">
          <mxGeometry x="130" y="280" width="150" height="30" as="geometry" />
        </mxCell>
        <mxCell id="aGxPgQliDTNxI-pSx7u1-13" value="&#39;\0&#39;" style="text;html=1;strokeColor=default;fillColor=none;align=center;verticalAlign=middle;whiteSpace=wrap;rounded=0;labelBorderColor=none;" vertex="1" parent="1">
          <mxGeometry x="130" y="250" width="150" height="30" as="geometry" />
        </mxCell>
        <mxCell id="aGxPgQliDTNxI-pSx7u1-15" value="envp" style="text;html=1;strokeColor=default;fillColor=none;align=center;verticalAlign=middle;whiteSpace=wrap;rounded=0;labelBorderColor=none;" vertex="1" parent="1">
          <mxGeometry x="130" y="220" width="150" height="30" as="geometry" />
        </mxCell>
        <mxCell id="aGxPgQliDTNxI-pSx7u1-20" value="执行后的位置图" style="text;html=1;strokeColor=none;fillColor=none;align=center;verticalAlign=middle;whiteSpace=wrap;rounded=0;labelBorderColor=none;" vertex="1" parent="1">
          <mxGeometry x="130" y="120" width="100" height="30" as="geometry" />
        </mxCell>
        <mxCell id="aGxPgQliDTNxI-pSx7u1-21" value="" style="rounded=0;whiteSpace=wrap;html=1;fillColor=#d5e8d4;strokeColor=#82b366;" vertex="1" parent="1">
          <mxGeometry x="130" y="470" width="150" height="310" as="geometry" />
        </mxCell>
        <mxCell id="aGxPgQliDTNxI-pSx7u1-22" value="" style="curved=1;endArrow=classic;html=1;rounded=0;entryX=0;entryY=0;entryDx=0;entryDy=0;exitX=0;exitY=1;exitDx=0;exitDy=0;" edge="1" parent="1" source="aGxPgQliDTNxI-pSx7u1-4" target="aGxPgQliDTNxI-pSx7u1-11">
          <mxGeometry width="50" height="50" relative="1" as="geometry">
            <mxPoint x="30" y="240" as="sourcePoint" />
            <mxPoint x="80" y="190" as="targetPoint" />
            <Array as="points">
              <mxPoint x="60" y="330" />
              <mxPoint x="50" y="310" />
              <mxPoint x="40" y="290" />
              <mxPoint x="30" y="190" />
            </Array>
          </mxGeometry>
        </mxCell>
      </root>
    </mxGraphModel>
  </diagram>
</mxfile>
